# xmcd
#
# Track frame offsets: 
#        150
#        14067
#        24394
#        39882
#        53822
#        61348
#        72355
#        85727
#        98182
#        117517
#        134909
#        145412
#        157422
#        172465
#        183340
#        196057
#        209649
#        223623
#        239105
#        258264
#        278358
#
# Disc length: 3901 seconds
#
# Revision: 1
# Processed by: cddbd v1.5.2PL0 Copyright (c) Steve Scherf et al.
# Submitted via: ExactAudioCopyFreeDBPlugin 1.0
#
DISCID=4b0f3b15
DTITLE=NoSeQuien y los NoSeCuantos - XX Larga Duración
DYEAR=2011
DGENRE=Latin
TTITLE0=Volar
TTITLE1=Lechuza Gorda [Captura de Abimael]
TTITLE2=Es mi vida
TTITLE3=Ballena azul
TTITLE4=Distrito de Ate-Vitarte
TTITLE5=El rap del chicle choncholí
TTITLE6=Pisco sour
TTITLE7=La cita
TTITLE8=Ríndete Flanigan [Cowboys]
TTITLE9=Ceremonias S.A.
TTITLE10=Tanda comercial
TTITLE11=Magdalena
TTITLE12=El temblor
TTITLE13=Títere
TTITLE14=Sube no más
TTITLE15=Sinfonía de amor
TTITLE16=Los patos y las patas
TTITLE17=Rendidos
TTITLE18=Aló Gisela
TTITLE19=Turcos, sudacas y otros pobres
TTITLE20=Un chico más [OST "Lars y el misterio del portal"]
EXTD=
EXTT0=
EXTT1=
EXTT2=
EXTT3=
EXTT4=
EXTT5=
EXTT6=
EXTT7=
EXTT8=
EXTT9=
EXTT10=
EXTT11=
EXTT12=
EXTT13=
EXTT14=
EXTT15=
EXTT16=
EXTT17=
EXTT18=
EXTT19=
EXTT20=
PLAYORDER=
